<svg viewBox="0 0 72 72" xmlns="http://www.w3.org/2000/svg"><path fill="#3f3f3f" d="M33.852 28.007c-5.285 0-9.584 4.299-9.584 9.584s4.3 9.584 9.584 9.584s9.585-4.3 9.585-9.584s-4.3-9.584-9.584-9.584Zm0 14.584c-2.757 0-5-2.243-5-5s2.243-5 5-5s5 2.242 5 5s-2.242 5-5 5Z"/><circle cx="33.852" cy="37.591" r="5" fill="#d0cfce"/><path fill="#fff" d="M57.93 22.918H15.27c-1.182 0-3.144 1.924-3.144 3.062l.456 7.218h8.047l4.15.188c-.013.022 3.276-5.795 9.073-5.795c4.15 0 8.744 5.01 8.74 5l3.391.299l13.304.23l.037-7.14c0-1.138-.212-3.062-1.393-3.062Z"/><path fill="#f1b31c" d="M27.818 19.183c-.017.261-.35-2.162-.35-2.162h-9.035s-.282 2.504-.306 2.438v3.33l9.691-.119v-3.487Z"/><path fill="#9b9b9a" d="M56.723 51.768c.132-.003 2.601-1.04 2.601-1.175l-.037-17.473l-9.778-.226l-2.383-.697h-3.69l.014.035c.22.391-.665.797-.494 1.215c.011.028.296 7.996.155 8.144c-.426.445-2.263 3.21-3.06 3.844c-2.386 1.903-4.585 2.03-4.672 2.039c-.346.033-1.999.113-2.114.099c-.11-.014-2.34-.383-4.203-1.394c-1.78-.966-3.198-2.575-3.21-2.588c-.552-.635-.987-1.976-1-2c-.119-.229-1.029-2.126-.84-4.782c.082-1.152 1.348-4.5 1.348-4.5l-4.731-.112c.18 0-7.91.394-7.91.394l.104 16.61s0 1.407.723 2.166c.848.889 1.687.401 1.695.401h41.482Z"/><g fill="none" stroke="#000" stroke-linecap="round" stroke-linejoin="round" stroke-width="2"><path d="M15.27 22.918c-1.737 0-3.144 1.37-3.144 3.062v23.221c0 1.692 1.407 3.063 3.144 3.063h41.66c1.737 0 3.144-1.371 3.144-3.063V25.98c0-1.691-1.407-3.062-3.144-3.062H15.27Zm31.882 10.279h12.466m-47.036 0h8.047"/><circle cx="33.852" cy="37.591" r="10"/><circle cx="33.852" cy="37.591" r="5"/><path d="M27.831 19.12v-1.078c0-.564-.47-1.021-1.048-1.021h-7.677c-.578 0-1.048.457-1.048 1.02v1.079"/></g></svg>