<svg viewBox="0 0 72 72" xmlns="http://www.w3.org/2000/svg"><path fill="#f4aa41" d="m16.697 14.097l-.339 2.109c-.113.519-1.362 1.17-1.877 1.297l-1.038.255a1.392 1.392 0 0 0-.69.408L11.55 19.47a1.39 1.39 0 0 1-.864.44l-3.806.633c-.583.067-.07 2.426-.07 2.426c.188.316 1.027 1.132 1.383 1.223l5.945 1.248c.568.145.59 1.786.647 2.37l.361 8.898l.005.048l.545 3.361c.057.355.25.674.537.89l4.14 3.11c.23.171.4.41.489.683l1.127 1.767c.56 1.73.629 4.899.437 6.706l-.546 5.325c.013.714.329 1.419.925 1.812a.887.887 0 0 0 .371.114c1.05.13 2.04-.532 2.46-1.501l1.506-3.471l.05-.15l1.779-7.952a1.391 1.391 0 0 1 1.707-1.043a10.93 10.93 0 0 0 4.006.278l5.418-.628a1.39 1.39 0 0 0 .203-.039l7.074-1.915a1.393 1.393 0 0 1 1.473.503l2.373 3.134l2.42 3.295c.336.457.532 1.002.565 1.568l.796 5.338c.114 2.188 1.765 2.799 2.618 2.724c0 0 1.586.02 1.734-2.234l-.199-5.976a6.875 6.875 0 0 0-.322-2.313l-.991-3.104a7.73 7.73 0 0 1-.228-3.806l.608-3.173a7.174 7.174 0 0 0-.127-3.248l-.176-.64a4.324 4.324 0 0 1 .066-2.498c.196-.594.432-1.197.608-1.37c.478-.47 4.803-3.506 5.448-9.223C65.393 11.132 47.876 9.3 51.156 12l1.314.321c5.58 2.188 6.446 4.63 6.446 4.63c1.909 3.607-.334 8.111-1.52 9.358l-.228.24a4.9 4.9 0 0 1-1.807 1.202c-1.022.39-2.446.926-2.566.937c-.19.018-3.358-.373-3.783-.437s-7.664-.224-7.914-.226l-12.927-.097a1.385 1.385 0 0 1-1.297-.929l-1.37-3.885a1.392 1.392 0 0 0-.193-.365l-1.569-2.522c-.088-.12-.164-.226-.286-.312l-.911-.781c-.228-.16-1.574-.811-1.672-1.072l-.935-2.475a1.4 1.4 0 0 0-.06-.137l-.738-1.455a2.136 2.136 0 0 0-1.076-1.004l-.11-.046c-.802-.338-1.072.302-1.257 1.152Z"/><path fill="#e27022" d="m44.335 44.767l.606 1.801a2.963 2.963 0 0 0 1.122 1.492l2.111 1.462c.833.577 2.205.977 2.166 1.99l-.595 4.044a18.408 18.408 0 0 0-.193 2.396l-.009.584a2.963 2.963 0 0 0 2.454 2.461c.89.144 1.818-.103 2.466-.73c.492-.478.99-1.186 1.268-2.215c.083-.306.092-.627.061-.943l-.604-6.344a2.952 2.952 0 0 0-.854-1.81l-2.482-2.482a2.963 2.963 0 0 1-.455-.586l-1.06-1.79a2.963 2.963 0 0 0-3.645-1.243l-1.803.717a.958.958 0 0 0-.554 1.196ZM16.43 38.544c-.472.655-2.211 3.092-3.463 4.874c-1 1.424-1.87 4.12-1.87 5.195c0 1.255.017 2.436.402 3.159c.53.994 1.213 2.17 1.728 2.633c.463.417.954.692 1.551.87c.256.075.798.11 1.26.125a2.97 2.97 0 0 0 1.453-.328l.295-.151c.144-.074.339-.255.534-.463c.653-.693.973-1.667.765-2.596c-.132-.588-.451-1.124-1.155-1.212c-1.884-.233-2.055-1.233-1.66-2.447a.125.125 0 0 1 .048-.125l2.827-2.09a3.116 3.116 0 0 0 .42-4.637a.352.352 0 0 0-.072-.06L18.3 40.56c-.672-.218-1.62-.739-1.651-1.944c-.003-.117-.151-.166-.22-.071Z"/><g fill="none" stroke="#000" stroke-linecap="round" stroke-linejoin="round" stroke-width="2"><path d="M58.417 34.667c.666 1.698.85 2.963.516 4.5L57.8 44.37l1.95 6.106s.12 4.77.001 8.28a2.058 2.058 0 0 1-2.037 1.974h-.353c-1.346 0-1.925-1.325-1.925-2.671l-.853-8.391s-7.49-5.467-6.458-13.605M33.266 45.25c3.833-.205 11.234 0 14.984-2.688"/><path d="M51.375 12c5.76 1.546 8.075 4.29 8.65 7.205c1.039 5.269-4.012 9.798-9.224 8.502c-2.526-.628-4.649-.443-4.649-.443l-18.402-.139C26.062 19 21.303 17.56 21.303 17.56c-.726-4.665-3.263-5.416-4.06-5.537a.24.24 0 0 0-.276.204l-.535 3.703a1.263 1.263 0 0 1-1.037 1.064l-.59.1a3.96 3.96 0 0 0-2.039 1.012l-.894.837a1.974 1.974 0 0 1-1.137.52l-3.459.373c-.761.082-.979 2.124-.683 2.83l.63.852a2.24 2.24 0 0 0 1.643 1.333l6.467.732s-1 13.167 2.73 15.167c8.13 4.36 4.407 16.522 4.407 16.522c-.822 1.436-.187 3.457 1.468 3.457h.001c.794 0 1.524-.436 1.899-1.136l2.1-5.468l1.377-9.145c.108-.718-.037-1.442-.366-2.09c-.576-1.133-1.253-3.36-.137-6.525"/><path d="m15.985 39.05l-4.352 6.656a2.997 2.997 0 0 0-.52 1.618c-.043 1.755-.254 5.542 3 7.69c.855.564 2.464.64 3.314.112c.718-.446 1.303-1.291.774-2.892m2.083-8.047l-4.409 3.079m30.292 0c.433 1.567 3.077 3.003 4.25 3.734c0 0-.936 5.342-1.07 7.143a2.36 2.36 0 0 0 .59 1.732c1.063 1.188 2.43.665 2.43.665"/></g></svg>