<svg viewBox="0 0 72 72" xmlns="http://www.w3.org/2000/svg"><path fill="#fff" d="M35.498 37.967h1.016c7.625 0 13.815 6.19 13.815 13.815v6.458H22.001v-6.776c0-7.45 6.048-13.497 13.497-13.497Zm1.159-3.971h-1.016c-7.625 0-13.815-6.19-13.815-13.814v-6.459h28.328V20.5c0 7.45-6.048 13.497-13.497 13.497Z"/><path fill="#fff" d="M39.313 33.681s-2.823 2.018-.171 4.548c0 0-2.034-.556-6.387.07c0 0 2.756-2.098-.094-4.729l6.652.111Z"/><path fill="#9b9b9a" d="M40.214 31.105c.004-.002.007-.002.01-.002c.006-.001.01-.003.014-.005C45.893 29.613 48 23.308 48 19.682V18H24v1.682c0 3.626 2.107 9.931 7.762 11.416l.013.006a.02.02 0 0 1 .011.002c1.792.486 3.1 1.536 3.75 2.894h.929c.65-1.358 1.957-2.408 3.749-2.894ZM47 55c-6.074 0-11-4.926-11-11c0 6.074-4.926 11-11 11h-1v4h24v-4h-1Z"/><path fill="#a57939" d="M55 11c0 1.1-.9 2-2 2H19c-1.1 0-2-.9-2-2v-1c0-1.1.9-2 2-2h34c1.1 0 2 .9 2 2v1Zm0 51c0 1.1-.9 2-2 2H19c-1.1 0-2-.9-2-2v-1c0-1.1.9-2 2-2h34c1.1 0 2 .9 2 2v1Z"/><path fill="none" stroke="#000" stroke-linecap="round" stroke-linejoin="round" stroke-width="2" d="M31 34c-7.272-1.91-10-9.545-10-14.318V13m0 46v-6.682C21 47.546 23.728 39.91 31 38m0 0c1-.272 2-.894 2-2c0-1.105-1-1.728-2-2m10 0c7.272-1.91 10-9.545 10-14.318V13m0 46v-6.682C51 47.546 48.272 39.91 41 38m0 0c-1-.272-2-.894-2-2c0-1.105 1-1.728 2-2M25 55c6.074 0 11-4.926 11-11c0 6.074 4.926 11 11 11m8-44c0 1.1-.9 2-2 2H19c-1.1 0-2-.9-2-2v-1c0-1.1.9-2 2-2h34c1.1 0 2 .9 2 2v1Zm-8 7H25m30 44c0 1.1-.9 2-2 2H19c-1.1 0-2-.9-2-2v-1c0-1.1.9-2 2-2h34c1.1 0 2 .9 2 2v1ZM36 39v5"/></svg>