<svg viewBox="0 0 72 72" xmlns="http://www.w3.org/2000/svg"><path fill="#d0cfce" d="M34.876 39.625a.995.995 0 0 1-.518-.144l-7.7-4.66a1 1 0 0 1-.34-1.369l11.117-18.585a1 1 0 0 1 1.376-.342l7.7 4.66a1 1 0 0 1 .338 1.373S40.003 31.925 39.722 32.4l-3.986 6.735a.995.995 0 0 1-.86.49Z"/><path fill="#3f3f3f" d="m42.244 13.68l3.422 2.071l-2.044 3.401l-3.423-2.071l2.045-3.401z"/><path fill="#d0cfce" d="M16.976 54.983h37v5h-37zm34.857-4.073c-.162 0-.32-.04-.463-.114l-3.595-1.879a1 1 0 0 1-.487-1.197l.245-.75c3.007-9.194-1.977-14.56-5.215-16.941a1 1 0 0 1-.236-1.364l2.203-3.271a1 1 0 0 1 1.424-.244c4.59 3.407 11.67 11.014 7.527 23.685l-.453 1.385c-.135.41-.518.689-.95.69Z"/><circle cx="42.138" cy="26.325" r="3" fill="#3f3f3f"/><path fill="#3f3f3f" d="M53.209 54.483c-.282-2.516-1.865-5.812-6.318-5.81c-4.45.003-8.058 1.86-8.06 6.31l14.378-.5Z"/><g fill="none" stroke="#000" stroke-linecap="round" stroke-linejoin="round" stroke-width="2"><path d="M32.265 37.58a1.894 1.894 0 0 1-2.433.282a2.001 2.001 0 0 1-.879-2.294m9.909-3.677l-3.986 6.734l-7.7-4.659L38.293 15.38l7.7 4.659l-.879 1.453M17.707 43.068l.818-1.825l19.16 8.59l-.818 1.824zm-.731 11.915h37v5h-37zM40.55 16.475l1.69-2.793l3.422 2.071l-1.69 2.793zm.632 34.325a7.081 7.081 0 0 1 12.794 4.183m-16.715-4.184h3.921"/><path d="m48.238 48.03l.245-.75c3.204-9.796-2.122-15.52-5.572-18.057"/><path d="M45.114 25.952c4.302 3.194 11.134 10.453 7.172 22.572l-.454 1.385"/><circle cx="42.138" cy="26.325" r="3"/></g></svg>