<svg viewBox="0 0 72 72" xmlns="http://www.w3.org/2000/svg"><path fill="#d22f27" d="M5.854 50.694S5.417 55 7 55s13.531-.063 13.531-.063h40.083l1.834-2h3.587V35.958l-7.56-.033a5.115 5.115 0 0 0-2.15.327a2.906 2.906 0 0 0-1.867 2.603s5.228 5.063 5.228 5.063l-3.905.02s-.939-1.49-3.082-2.585C46.13 38 41.532 38.936 41.532 38.936L41 44.826S30.065 44.54 26.65 45c-1.97.266-6.082 1.024-10.365 2.019c-3.228.75-6.162 1.959-9.285 2.98l-1.146.695Z"/><path fill="#ea5a47" d="M10.22 53.376S4.437 54.46 6 53.084c0 0 3.969-2.647 13.612-2.897l-2.8 3.391l-4.019 1.216l-2.573-1.418Zm31.343-9.688L42 39.85l3.963.623c3.286.516 6.35 1.98 8.817 4.214l.345.312h-9.5l-4.063-1.312Zm14.319-7.918L55.717 38h10.56l-.165-2.302l-10.23.072z"/><circle cx="58.75" cy="52" r="2.828" fill="#d0cfce"/><circle cx="21.5" cy="52" r="2.828" fill="#d0cfce"/><circle cx="22" cy="52" r="3" fill="none" stroke="#000" stroke-linecap="round" stroke-linejoin="round" stroke-width="2"/><circle cx="39" cy="42" r="3"/><circle cx="59" cy="52" r="3" fill="none" stroke="#000" stroke-linecap="round" stroke-linejoin="round" stroke-width="2"/><path fill="none" stroke="#000" stroke-linecap="round" stroke-linejoin="round" stroke-width="2" d="M65.625 52H67V35H55v3l3.188 3.108M16 53l-1 1H5v-4s13-6 26-6h20M29 54h24M41 43v-4s10 0 14 5"/></svg>