<svg viewBox="0 0 72 72" xmlns="http://www.w3.org/2000/svg"><path fill="#d0cfce" d="M12 13h48v47H12z"/><path fill="#d0cfce" stroke="#9b9b9a" stroke-linejoin="round" stroke-width="2" d="M44 27h10l-2 5h-6l-2-5Z"/><path fill="none" stroke="#9b9b9a" stroke-linejoin="round" stroke-width="2" d="M43.5 34.5L40 31h-4v-4h8m-2 11h-6v-7m18.5 3.5L58 31h1m-3 7h3m-3 7h3m-3 7h3m-23-7h5m-5 7h5"/><path fill="#a57939" fill-rule="evenodd" d="M42 39a7 7 0 1 1 14 0v21H42V39Z"/><path fill="#3f3f3f" d="M17 40h16v14H17z"/><path fill="#6a462f" d="M50 40h4v18h-4zm-6 0h4v18h-4z"/><path fill="#6a462f" fill-rule="evenodd" d="M44 39a5 5 0 0 1 10 0H44Z"/><path fill="none" stroke="#9b9b9a" stroke-width="2" d="M54 27h5"/><g fill="none" stroke-width="4"><path stroke="#ea5a47" d="M17 37V27m8 10V27m8 10V27"/><path stroke="#fff" d="M29 37V27m-8 10V27"/><path stroke="#d22f27" d="M17 39v-2m8 2v-2m8 2v-2"/><path stroke="#d0cfce" d="M29 39v-2m-8 2v-2"/></g><path fill="none" stroke="#000" stroke-linecap="round" stroke-width="2" d="M18 54h14"/><path d="M15 27v-1a1 1 0 0 0-1 1h1Zm20 0h1a1 1 0 0 0-1-1v1ZM20 38a1 1 0 1 0-2 0h2Zm4 0a1 1 0 1 0-2 0h2Zm4 0a1 1 0 1 0-2 0h2Zm4 0a1 1 0 1 0-2 0h2ZM15 28h20v-2H15v2Zm1 10V27h-2v11h2Zm1 1a1 1 0 0 1-1-1h-2a3 3 0 0 0 3 3v-2Zm1-1a1 1 0 0 1-1 1v2a3 3 0 0 0 3-3h-2Zm3 1a1 1 0 0 1-1-1h-2a3 3 0 0 0 3 3v-2Zm1-1a1 1 0 0 1-1 1v2a3 3 0 0 0 3-3h-2Zm3 1a1 1 0 0 1-1-1h-2a3 3 0 0 0 3 3v-2Zm1-1a1 1 0 0 1-1 1v2a3 3 0 0 0 3-3h-2Zm3 1a1 1 0 0 1-1-1h-2a3 3 0 0 0 3 3v-2Zm1-1a1 1 0 0 1-1 1v2a3 3 0 0 0 3-3h-2Zm3 1a1 1 0 0 1-1-1h-2a3 3 0 0 0 3 3v-2Zm1-1a1 1 0 0 1-1 1v2a3 3 0 0 0 3-3h-2Zm0-11v11h2V27h-2Z"/><path fill="none" stroke="#000" stroke-linecap="round" stroke-width="2" d="M35 59V43M15 59V43"/><path d="M49 33a6 6 0 0 0-6 6h-2a8 8 0 0 1 8-8v2Zm6 6a6 6 0 0 0-6-6v-2a8 8 0 0 1 8 8h-2Zm0 20.005V39h2v20.005h-2ZM43 39v20.007h-2V39h2Z"/><path fill="none" stroke="#000" stroke-linejoin="round" stroke-width="2" d="M12 13h48v47H12z"/><path fill="none" stroke="#000" stroke-linecap="round" stroke-linejoin="round" stroke-width="2" d="M50.03 16h-4v7h4m-4-3.5h3m8-3.5h-4v7h4m-4-3.5h3m-27 3.5l-3-7l-3 7m1-1.68h4m7-1.82h-3V23v-7h4m6.17 3.5h-3V23v-7h4M16 16v7m.02-2.461l4-4.539m-2.034 2.357l2.397 4.647"/></svg>